HIERARCHY
ROOT Hips
{
	OFFSET -0.001795 -0.223333 0.028219
	CHANNELS 6 Xposition Yposition Zposition Zrotation Yrotation Xrotation 
	JOINT LeftUpLeg
	{
		OFFSET 0.069520 -0.091406 -0.006815
		CHANNELS 3 Zrotation Yrotation Xrotation
		JOINT LeftLeg
		{
			OFFSET 0.034277 -0.375199 -0.004496
			CHANNELS 3 Zrotation Yrotation Xrotation
			JOINT LeftFoot
			{
				OFFSET -0.013596 -0.397961 -0.043693
				CHANNELS 3 Zrotation Yrotation Xrotation
				JOINT LeftToe
				{
					OFFSET 0.026358 -0.055791 0.119288
					CHANNELS 3 Zrotation Yrotation Xrotation
					End Site
					{
						OFFSET 0.000000 0.000000 0.000000
					}
				}
			}
		}
	}
	JOINT RightUpLeg
	{
		OFFSET -0.067670 -0.090522 -0.004320
		CHANNELS 3 Zrotation Yrotation Xrotation
		JOINT RightLeg
		{
			OFFSET -0.038290 -0.382569 -0.008850
			CHANNELS 3 Zrotation Yrotation Xrotation
			JOINT RightFoot
			{
				OFFSET 0.015774 -0.398415 -0.042312
				CHANNELS 3 Zrotation Yrotation Xrotation
				JOINT RightToe
				{
					OFFSET -0.025372 -0.048144 0.123348
					CHANNELS 3 Zrotation Yrotation Xrotation
					End Site
					{
						OFFSET 0.000000 0.000000 0.000000
					}
				}
			}
		}
	}
	JOINT Spine
	{
		OFFSET -0.002533 0.108963 -0.026696
		CHANNELS 3 Zrotation Yrotation Xrotation
		JOINT Spine1
		{
			OFFSET 0.005487 0.135180 0.001092
			CHANNELS 3 Zrotation Yrotation Xrotation
			JOINT Spine2
			{
				OFFSET 0.001457 0.052922 0.025425
				CHANNELS 3 Zrotation Yrotation Xrotation
				JOINT Neck
				{
					OFFSET -0.002778 0.213870 -0.042857
					CHANNELS 3 Zrotation Yrotation Xrotation
					JOINT Head
					{
						OFFSET 0.005152 0.064970 0.051349
						CHANNELS 3 Zrotation Yrotation Xrotation
						End Site
						{
							OFFSET 0.000000 0.000000 0.000000
						}
					}
				}
				JOINT LeftShoulder
				{
					OFFSET 0.078845 0.121749 -0.034090
					CHANNELS 3 Zrotation Yrotation Xrotation
					JOINT LeftArm
					{
						OFFSET 0.090977 0.030469 -0.008868
						CHANNELS 3 Zrotation Yrotation Xrotation
						JOINT LeftForeArm
						{
							OFFSET 0.259612 -0.012772 -0.027456
							CHANNELS 3 Zrotation Yrotation Xrotation
							JOINT LeftHand
							{
								OFFSET 0.249234 0.008986 -0.001171
								CHANNELS 3 Zrotation Yrotation Xrotation
								End Site
								{
									OFFSET 0.000000 0.000000 0.000000
								}
							}
						}
					}
				}
				JOINT RightShoulder
				{
					OFFSET -0.081759 0.118833 -0.038615
					CHANNELS 3 Zrotation Yrotation Xrotation
					JOINT RightArm
					{
						OFFSET -0.096012 0.032551 -0.009143
						CHANNELS 3 Zrotation Yrotation Xrotation
						JOINT RightForeArm
						{
							OFFSET -0.253742 -0.013329 -0.021401
							CHANNELS 3 Zrotation Yrotation Xrotation
							JOINT RightHand
							{
								OFFSET -0.255298 0.007772 -0.005559
								CHANNELS 3 Zrotation Yrotation Xrotation
								End Site
								{
									OFFSET 0.000000 0.000000 0.000000
								}
							}
						}
					}
				}
			}
		}
	}
}
MOTION
Frames: 16
Frame Time: 0.050000
0.000000 0.952825 0.000000 -0.567978 -0.729940 6.233090 4.499058 -0.300017 -3.574022 1.802578 -0.060042 -2.724837 -4.156846 -0.598366 16.337210 0.000000 0.000000 0.000000 -0.885971 0.291852 -2.790007 -3.510328 -0.073150 -6.165218 -0.191073 -6.783929 16.405070 0.000000 0.000000 0.000000 4.084008 0.109292 -2.952313 -2.587919 1.209361 -3.366022 -2.943680 5.515077 4.221429 6.792588 -3.647706 -8.943103 0.000000 0.000000 0.000000 -17.010654 -4.264606 -0.755005 -55.168960 -5.402088 -3.897279 -9.204810 -20.477421 2.195963 0.000000 0.000000 0.000000 16.889887 -1.867177 -1.325691 62.437734 6.392438 -2.511776 6.772834 20.353137 1.965820 0.000000 0.000000 0.000000 
0.000406 0.951378 0.001354 -0.878209 -1.567909 6.734871 4.663738 -0.268937 -3.015378 1.919394 0.002846 -4.191773 -3.670307 -0.066266 16.133861 0.000000 0.000000 0.000000 -0.935406 0.398743 -3.933545 -3.011723 -0.034853 -5.147407 0.062854 -6.278221 15.695479 0.000000 0.000000 0.000000 4.947511 0.111999 -3.059757 -3.157223 1.445341 -3.556509 -3.315350 6.567514 3.947659 7.365526 -3.825258 -9.808519 0.000000 0.000000 0.000000 -17.706058 -4.128714 -1.088678 -54.388782 -5.164126 -3.850900 -9.543314 -20.966950 2.274283 0.000000 0.000000 0.000000 16.405819 -2.787815 -1.667017 63.928661 6.291078 -2.474134 7.175430 20.191679 2.035833 0.000000 0.000000 0.000000 
0.000696 0.951608 0.002308 -0.610578 -1.325772 6.334748 4.579097 -0.262161 -2.927258 1.551553 0.000196 -3.574480 -3.824483 -0.278128 16.090882 0.000000 0.000000 0.000000 -1.083047 0.377920 -3.703821 -3.265732 0.017628 -4.603942 -0.112104 -6.487872 15.501489 0.000000 0.000000 0.000000 4.490378 0.098266 -2.816427 -2.377908 1.109305 -4.748665 -4.023949 6.197591 4.631399 7.306726 -4.017189 -8.774297 0.000000 0.000000 0.000000 -17.467850 -3.868752 -1.136628 -54.878448 -4.772894 -4.170778 -8.737958 -19.605594 2.005742 0.000000 0.000000 0.000000 17.765919 -1.593130 -1.072921 62.443172 6.107967 -2.756208 6.775229 20.564664 2.013361 0.000000 0.000000 0.000000 
0.000930 0.951365 0.003218 -0.556502 -1.507453 6.562315 4.827533 -0.260752 -2.886898 0.948176 0.061957 -3.923064 -3.762641 -0.188078 16.159718 0.000000 0.000000 0.000000 -1.230740 0.411447 -4.054878 -3.173321 0.026816 -4.363587 -0.073278 -6.400490 15.341574 0.000000 0.000000 0.000000 4.494484 0.132308 -3.262866 -2.792036 1.283392 -4.343623 -3.569950 5.422658 4.071997 6.969716 -4.027831 -7.730274 0.000000 0.000000 0.000000 -17.989848 -3.236621 -1.324371 -55.389536 -4.648136 -4.230543 -7.222246 -19.126133 1.737799 0.000000 0.000000 0.000000 16.744025 -1.549945 -1.239349 63.020947 5.966980 -2.733046 7.832015 20.714637 2.167422 0.000000 0.000000 0.000000 
0.001131 0.951590 0.003904 -0.473063 -1.525224 6.420931 4.371561 -0.248094 -2.663978 1.553407 0.018491 -3.966895 -3.760758 -0.169854 16.196492 0.000000 0.000000 0.000000 -1.232281 0.388819 -3.807494 -3.358090 0.032226 -4.457646 -0.051058 -6.379334 15.390335 0.000000 0.000000 0.000000 4.308697 0.146148 -3.405301 -2.352039 1.096909 -4.301285 -3.942581 4.963051 4.186112 6.554203 -3.687212 -8.098574 0.000000 0.000000 0.000000 -18.351990 -2.695528 -1.553732 -55.158942 -4.908534 -4.109324 -6.545560 -17.499670 1.505310 0.000000 0.000000 0.000000 16.698210 -1.624266 -1.354156 63.041738 6.043366 -2.716548 8.141325 20.862875 2.227224 0.000000 0.000000 0.000000 
0.001294 0.951681 0.004299 -0.433087 -1.927422 6.566735 4.063223 -0.255545 -2.824522 1.915957 -0.018834 -3.791422 -3.533359 0.117008 16.196422 0.000000 0.000000 0.000000 -1.297828 0.413372 -4.071177 -3.407183 0.041253 -4.337470 0.128248 -6.116587 15.346314 0.000000 0.000000 0.000000 4.380045 0.153584 -3.500868 -2.473522 1.143012 -4.552326 -4.021421 4.803621 4.288751 6.557436 -3.747185 -7.925085 0.000000 0.000000 0.000000 -18.523635 -2.110287 -1.782082 -54.995887 -4.964814 -4.091370 -5.974592 -17.477034 1.430904 0.000000 0.000000 0.000000 16.179771 -1.796800 -1.496213 63.532549 5.784345 -2.858906 8.870184 21.185368 2.379133 0.000000 0.000000 0.000000 
0.001493 0.951894 0.004429 -0.332634 -2.030559 6.558871 3.884789 -0.257673 -2.866223 1.988030 -0.031156 -3.667054 -3.494074 0.183336 16.254632 0.000000 0.000000 0.000000 -1.397507 0.421065 -4.150682 -3.466544 0.054005 -4.199276 0.167881 -6.062435 15.340978 0.000000 0.000000 0.000000 4.304106 0.145810 -3.400784 -2.354294 1.091265 -4.602440 -4.294669 4.573325 4.267694 6.666274 -3.742070 -8.450021 0.000000 0.000000 0.000000 -18.617576 -1.764555 -1.918359 -54.581442 -4.507800 -4.266303 -6.596472 -17.653651 1.546041 0.000000 0.000000 0.000000 16.133033 -2.004427 -1.649137 63.422119 5.150771 -3.203853 9.620607 21.975071 2.611088 0.000000 0.000000 0.000000 
0.001732 0.952111 0.004449 -0.270807 -2.005012 6.778605 3.707305 -0.282185 -3.242923 2.158642 -0.056154 -3.444928 -3.496744 0.201382 16.307095 0.000000 0.000000 0.000000 -1.501359 0.442780 -4.383013 -3.431441 0.050744 -4.210667 0.158057 -6.104063 15.434755 0.000000 0.000000 0.000000 4.293524 0.143316 -3.409183 -2.335143 1.082614 -4.701205 -4.769180 4.562814 4.119668 6.966690 -3.989128 -8.203286 0.000000 0.000000 0.000000 -18.155294 -1.548036 -1.991792 -54.181081 -3.867737 -4.509747 -7.846160 -18.668177 1.828623 0.000000 0.000000 0.000000 16.134357 -2.760605 -2.025388 63.510141 4.261686 -3.661272 11.015899 22.926131 3.017786 0.000000 0.000000 0.000000 
0.001999 0.952318 0.004437 -0.162712 -2.233371 6.726822 3.416508 -0.272525 -3.081289 2.379816 -0.067558 -3.571864 -3.408860 0.340741 16.413455 0.000000 0.000000 0.000000 -1.463029 0.424109 -4.173510 -3.777520 0.047010 -4.559195 0.299769 -5.932757 15.557141 0.000000 0.000000 0.000000 4.270875 0.128615 -3.210600 -2.418676 1.114907 -4.786231 -4.919531 4.554468 3.997651 7.121743 -4.118177 -8.118182 0.000000 0.000000 0.000000 -17.917542 -1.157817 -2.134502 -53.829854 -3.315993 -4.721333 -9.401487 -19.565533 2.179864 0.000000 0.000000 0.000000 16.241629 -3.105507 -2.235745 63.095365 3.490466 -4.056635 12.022822 23.985453 3.380608 0.000000 0.000000 0.000000 
0.002232 0.952196 0.004457 0.033409 -2.417218 6.829683 3.151063 -0.295743 -3.428996 2.403182 -0.095278 -3.120212 -3.292717 0.467141 16.352008 0.000000 0.000000 0.000000 -1.702825 0.429892 -4.213436 -3.795938 0.033370 -4.751100 0.372600 -5.823589 15.524839 0.000000 0.000000 0.000000 4.185028 0.125199 -3.178833 -2.370813 1.092883 -4.645059 -5.407965 4.744100 3.797926 7.894595 -4.665876 -8.040696 0.000000 0.000000 0.000000 -17.450050 -1.100021 -2.144901 -53.194612 -2.985818 -4.785267 -11.542464 -20.481551 2.648193 0.000000 0.000000 0.000000 16.035935 -3.729501 -2.509063 62.795915 2.676402 -4.437076 14.250008 25.432084 4.116738 0.000000 0.000000 0.000000 
0.002453 0.952002 0.004415 0.142463 -2.515477 6.944728 3.024382 -0.289004 -3.300983 2.372532 -0.068870 -3.554058 -3.270674 0.511536 16.426673 0.000000 0.000000 0.000000 -1.667683 0.427766 -4.186264 -4.118912 0.028437 -5.065651 0.420136 -5.765387 15.549890 0.000000 0.000000 0.000000 4.187641 0.134769 -3.311678 -2.299071 1.060706 -4.700408 -5.795031 4.820800 3.784977 8.110502 -4.887071 -7.677653 0.000000 0.000000 0.000000 -17.078960 -0.665118 -2.330411 -52.622490 -2.256573 -5.042623 -14.020824 -22.558731 3.393831 0.000000 0.000000 0.000000 15.816060 -4.564742 -2.904655 62.299980 1.555170 -4.979221 17.647069 27.314918 5.298332 0.000000 0.000000 0.000000 
0.002618 0.951446 0.004083 0.224982 -2.632280 7.036434 2.987704 -0.296088 -3.405551 2.241742 -0.058899 -3.553894 -3.185541 0.574905 16.294053 0.000000 0.000000 0.000000 -1.629500 0.441939 -4.350031 -4.393844 0.045980 -5.027469 0.428485 -5.712908 15.366965 0.000000 0.000000 0.000000 4.221068 0.160967 -3.643630 -2.342483 1.078994 -4.378962 -6.134588 5.067391 3.768681 9.160100 -5.569474 -7.953050 0.000000 0.000000 0.000000 -16.217522 -0.680701 -2.240180 -51.768024 -1.638191 -5.217542 -17.274511 -24.978372 4.452892 0.000000 0.000000 0.000000 15.262398 -5.119603 -3.094303 62.127836 0.001121 -5.742487 22.783546 31.056280 7.625845 0.000000 0.000000 0.000000 
0.002938 0.950935 0.003030 0.038404 -2.974378 7.156582 3.252986 -0.301833 -3.546430 2.042397 -0.045770 -3.526621 -2.956822 0.803061 16.105082 0.000000 0.000000 0.000000 -1.403016 0.456422 -4.527082 -4.522656 0.041057 -5.158191 0.598954 -5.457483 15.321840 0.000000 0.000000 0.000000 4.387201 0.166464 -3.704442 -2.026213 0.940705 -4.367331 -6.466443 5.662714 3.791419 9.779872 -6.003566 -7.903095 0.000000 0.000000 0.000000 -15.423962 -0.372623 -2.354362 -50.666947 -0.981441 -5.363333 -22.295318 -28.192629 6.245223 0.000000 0.000000 0.000000 14.795579 -5.967987 -3.402467 61.161840 -1.472322 -6.374161 29.435726 34.926343 11.009423 0.000000 0.000000 0.000000 
0.003591 0.950723 0.001089 -0.055687 -2.831056 7.033115 3.594310 -0.298265 -3.549089 1.593028 -0.008647 -3.540660 -3.025453 0.684134 16.004849 0.000000 0.000000 0.000000 -1.393263 0.492986 -4.944840 -4.403373 0.097340 -4.345366 0.470079 -5.593659 15.111412 0.000000 0.000000 0.000000 4.378491 0.145116 -3.429364 -1.919975 0.897240 -4.568089 -6.571911 6.174996 4.225986 11.138309 -6.926222 -8.120329 0.000000 0.000000 0.000000 -14.848497 -0.736985 -2.186890 -49.633055 -1.288576 -5.141010 -28.431151 -32.064382 8.850283 0.000000 0.000000 0.000000 14.530798 -6.314564 -3.447015 59.957212 -2.572363 -6.818047 37.595359 39.495708 16.054702 0.000000 0.000000 0.000000 
0.004634 0.950230 -0.001587 -0.018403 -2.406365 7.024024 3.621567 -0.314577 -3.782678 1.458364 0.004124 -3.556054 -3.213876 0.399952 15.841345 0.000000 0.000000 0.000000 -1.578440 0.492160 -4.933944 -4.200639 0.072704 -4.541024 0.263675 -5.898682 15.150343 0.000000 0.000000 0.000000 4.274888 0.124981 -3.211066 -1.381905 0.674728 -4.420340 -6.993596 6.227136 4.263395 11.423929 -7.098254 -8.185740 0.000000 0.000000 0.000000 -14.479830 -0.636511 -2.242334 -48.350150 -2.381366 -4.550589 -38.095809 -36.929668 13.558354 0.000000 0.000000 0.000000 14.039815 -6.740950 -3.558308 59.615834 -3.000918 -6.950517 46.661229 44.830395 23.035214 0.000000 0.000000 0.000000 
0.005852 0.950209 -0.004632 -0.108995 -1.976758 7.003168 3.937859 -0.335435 -4.174092 1.038288 0.027542 -3.308918 -3.416096 0.122968 15.761331 0.000000 0.000000 0.000000 -1.660035 0.516119 -5.214964 -3.951160 0.082753 -4.226318 0.057484 -6.219179 15.239919 0.000000 0.000000 0.000000 4.019652 0.122314 -3.184569 -1.110856 0.561436 -4.048045 -6.760745 6.455077 4.087415 12.571939 -7.790317 -8.622993 0.000000 0.000000 0.000000 -14.055979 -1.678248 -1.769427 -46.814266 -4.139898 -3.683464 -54.316947 -41.795735 22.265842 0.000000 0.000000 0.000000 13.820826 -6.302251 -3.255520 58.654020 -2.832083 -6.731663 57.970586 50.248545 32.940055 0.000000 0.000000 0.000000 
